<svg xmlns="http://www.w3.org/2000/svg" viewBox="0 0 169.75 33.71"><defs><style>.cls-1{fill:#626b6b;}.cls-2{fill:#ff8300;opacity:0.99;}.cls-3,.cls-4{fill:#ff8400;}.cls-3{fill-rule:evenodd;}</style></defs><title>Asset 24</title><g id="Layer_2" data-name="Layer 2"><g id="Layer_1-2" data-name="Layer 1"><path class="cls-1" d="M2.83,25.9a6.91,6.91,0,0,1-2.83-3l2.2-1.08q1.33,2.84,5.22,2.84a6.29,6.29,0,0,0,3.1-.68,2.27,2.27,0,0,0,1.22-2.12,2.54,2.54,0,0,0-1-2.2,7.28,7.28,0,0,0-3.47-.94,8.87,8.87,0,0,1-5-1.55A4.16,4.16,0,0,1,.83,13.88a4.31,4.31,0,0,1,1.69-3.64,7.46,7.46,0,0,1,4.64-1.3q5,0,6.8,4L11.77,14A4.32,4.32,0,0,0,10,11.86a5.89,5.89,0,0,0-3-.68,5,5,0,0,0-2.86.68,2.22,2.22,0,0,0-1,1.94,2.25,2.25,0,0,0,1.06,1.93,7.86,7.86,0,0,0,3.65,1,8.75,8.75,0,0,1,4.77,1.57,4.13,4.13,0,0,1,1.57,3.37,4.47,4.47,0,0,1-1,2.9,5.94,5.94,0,0,1-2.59,1.82,9.81,9.81,0,0,1-3.49.61A8.62,8.62,0,0,1,2.83,25.9Z"/><path class="cls-1" d="M28.47,9.66a5.66,5.66,0,0,1,2.38,2.12,6.1,6.1,0,0,1,.88,3.31V26.37H29.28V16.18q0-5-4.46-5A4.44,4.44,0,0,0,20.93,13a8.4,8.4,0,0,0-1.3,4.93v8.42H17.18V.23h2.45v12.1a6.42,6.42,0,0,1,2.29-2.5,6.12,6.12,0,0,1,3.29-.88A7.42,7.42,0,0,1,28.47,9.66Z"/><path class="cls-1" d="M51.43,9.52V26.37H49V23.88a7.5,7.5,0,0,1-2.56,2.25,6.9,6.9,0,0,1-3.31.81,8.19,8.19,0,0,1-4.32-1.15,8,8,0,0,1-3-3.2,9.9,9.9,0,0,1-1.08-4.68,9.83,9.83,0,0,1,1.06-4.63,8,8,0,0,1,3-3.19A8.1,8.1,0,0,1,43,8.94a7.08,7.08,0,0,1,3.37.81A7.31,7.31,0,0,1,49,12V9.52ZM46.12,23.85a5.82,5.82,0,0,0,2.11-2.41A7.85,7.85,0,0,0,49,17.94a7.86,7.86,0,0,0-.76-3.49A5.82,5.82,0,0,0,46.12,12,5.59,5.59,0,0,0,43,11.18,5.43,5.43,0,0,0,40,12a5.89,5.89,0,0,0-2.09,2.39,7.73,7.73,0,0,0-.76,3.47,7.92,7.92,0,0,0,.76,3.53A5.86,5.86,0,0,0,40,23.85a5.43,5.43,0,0,0,3,.86A5.59,5.59,0,0,0,46.12,23.85Z"/><path class="cls-1" d="M134.26,9.25V26.1h-2.45V23.62a7.5,7.5,0,0,1-2.56,2.25,6.9,6.9,0,0,1-3.31.81,8.19,8.19,0,0,1-4.32-1.15,8,8,0,0,1-3-3.2,9.9,9.9,0,0,1-1.08-4.68A9.83,9.83,0,0,1,118.62,13a8,8,0,0,1,3-3.19,8.1,8.1,0,0,1,4.3-1.15,7.08,7.08,0,0,1,3.37.81,7.31,7.31,0,0,1,2.57,2.29V9.25ZM129,23.58a5.82,5.82,0,0,0,2.11-2.41,7.85,7.85,0,0,0,.76-3.49,7.86,7.86,0,0,0-.76-3.49A5.82,5.82,0,0,0,129,11.77a5.59,5.59,0,0,0-3.08-.86,5.43,5.43,0,0,0-3,.86,5.89,5.89,0,0,0-2.09,2.39,7.73,7.73,0,0,0-.76,3.47,7.92,7.92,0,0,0,.76,3.53,5.86,5.86,0,0,0,2.09,2.41,5.43,5.43,0,0,0,3,.86A5.59,5.59,0,0,0,129,23.58Z"/><path class="cls-1" d="M76.65,9.52H79L73.51,26.37H71l-4.1-12.92L62.42,26.37H60L54.43,9.52H57l4.32,13.39L65.74,9.52h2.38l4.25,13.32Z"/><path class="cls-1" d="M93.27,9.7a5.65,5.65,0,0,1,2.38,2.12,6.1,6.1,0,0,1,.88,3.31V26.41H94.08V16.22q0-5-4.46-5A4.45,4.45,0,0,0,85.73,13,8.41,8.41,0,0,0,84.43,18v8.42H82V9.56h2.45v2.81a6.42,6.42,0,0,1,2.29-2.5A6.12,6.12,0,0,1,90,9,7.42,7.42,0,0,1,93.27,9.7Z"/><path class="cls-1" d="M149.68,9.79a7.89,7.89,0,0,1,2.88,3,8.88,8.88,0,0,1,1,4.3c0,.46,0,.8,0,1H139.71a7.3,7.3,0,0,0,1.69,4.43,5.22,5.22,0,0,0,4.21,1.84,7.16,7.16,0,0,0,3.58-.81,6.22,6.22,0,0,0,2.29-2.25l1.95,1.3a8.46,8.46,0,0,1-3.13,2.93,9.48,9.48,0,0,1-4.61,1.06,8.26,8.26,0,0,1-4.36-1.15,8,8,0,0,1-3-3.2,9.81,9.81,0,0,1-1.08-4.64A10,10,0,0,1,138.32,13a7.94,7.94,0,0,1,3-3.2,8.1,8.1,0,0,1,4.3-1.15A7.75,7.75,0,0,1,149.68,9.79Zm1.48,6.37a6.4,6.4,0,0,0-1.76-3.94,5.36,5.36,0,0,0-3.82-1.31,5.19,5.19,0,0,0-3.83,1.49,6.83,6.83,0,0,0-1.89,3.76Z"/><path class="cls-1" d="M167,26.14l-5.9-8.68-2.05,2v6.7h-2.45V0h2.45V16.34l7.38-7.06h3.17l-6.8,6.55,6.95,10.3Z"/><polygon class="cls-2" points="114.29 15.96 114.28 15.97 106.94 8.95 103.39 8.95 106.04 11.48 107.37 12.75 110.64 15.87 112.52 17.67 103.5 26.37 107.03 26.37 107.98 25.45 109.27 24.21 112.44 21.14 116.06 17.65 114.29 15.96"/><path class="cls-3" d="M99.6,33.71c1.62-2.06,3.24-3.82,3.24-6.22a2.09,2.09,0,1,0-4.18,0C98.67,29.89,100.6,30.6,99.6,33.71Z"/><path class="cls-4" d="M100.75,24.27a2.07,2.07,0,0,1,1.22.4c0-1.16,0-2.82,0-2.82V1.07a1.23,1.23,0,0,0-2.45,0s0,18.78,0,23.59A2.07,2.07,0,0,1,100.75,24.27Z"/></g></g></svg>